<svg width="50" height="35" viewBox="0 0 50 35" fill="none" xmlns="http://www.w3.org/2000/svg">
<path d="M24.9145 34.4009C24.9145 34.4009 40.5406 34.4009 44.4165 33.3688C46.5989 32.784 48.2402 31.0984 48.8162 29.0171C49.8812 25.1986 49.8812 17.166 49.8812 17.166C49.8812 17.166 49.8812 9.18503 48.8162 5.40094C48.2402 3.26808 46.5989 1.61684 44.4165 1.04923C40.5406 0 24.9145 0 24.9145 0C24.9145 0 9.32327 0 5.46477 1.04923C3.31727 1.61684 1.64118 3.26808 1.0301 5.40094C0 9.18503 0 17.166 0 17.166C0 17.166 0 25.1986 1.0301 29.0171C1.64118 31.0984 3.31727 32.784 5.46477 33.3688C9.32327 34.4009 24.9145 34.4009 24.9145 34.4009Z" fill="white"/>
<path d="M32.6806 17.2003L19.7803 9.89014V24.5105L32.6806 17.2003Z" fill="black"/>
</svg>